HIERARCHY
ROOT Hips
{
	OFFSET 0.00 0.00 0.00
	CHANNELS 6 Xposition Yposition Zposition Xrotation Yrotation Zrotation
	JOINT Spine
	{
		OFFSET 0.00000 1.75157 2.62736
		CHANNELS 3 Xrotation Yrotation Zrotation
		JOINT Spine1
		{
			OFFSET 0.00000 0.60831 3.44992
			CHANNELS 3 Xrotation Yrotation Zrotation
			JOINT Spine2
			{
				OFFSET 0.00000 0.30532 3.48981
				CHANNELS 3 Xrotation Yrotation Zrotation
				JOINT Spine3
				{
					OFFSET 0.00000 0.00000 3.50314
					CHANNELS 3 Xrotation Yrotation Zrotation
					JOINT Neck
					{
						OFFSET 0.00000 -1.31367 9.19575
						CHANNELS 3 Xrotation Yrotation Zrotation
						JOINT Head
						{
							OFFSET 0.00000 -0.83643 4.74364
							CHANNELS 3 Xrotation Yrotation Zrotation
							End Site
							{
								OFFSET 0.00000 0.00001 5.67071
							}
						}
					}
					JOINT RightShoulder
					{
						OFFSET -1.05974 -1.76624 5.72262
						CHANNELS 3 Xrotation Yrotation Zrotation
						JOINT RightArm
						{
							OFFSET -5.26340 0.00000 0.00000
							CHANNELS 3 Xrotation Yrotation Zrotation
							JOINT RightForeArm
							{
								OFFSET -10.14667 0.00000 0.00000
								CHANNELS 3 Xrotation Yrotation Zrotation
								JOINT RightHand
								{
									OFFSET -8.53343 0.00000 0.00000
									CHANNELS 3 Xrotation Yrotation Zrotation
									JOINT RightHandEnd
									{
										OFFSET -2.46135 0.00000 0.00000
										CHANNELS 3 Xrotation Yrotation Zrotation
										End Site
										{
											OFFSET -2.46135 0.00000 0.00000
										}
									}
									JOINT RightHandThumb1
									{
										OFFSET -0.98454 -1.64090 -0.65636
										CHANNELS 3 Yrotation Xrotation Zrotation
										End Site
										{
											OFFSET -2.37748 -0.63704 0.00000
										}
									}
								}
							}
						}
					}
					JOINT LeftShoulder
					{
						OFFSET 1.05974 -1.76624 5.72262
						CHANNELS 3 Xrotation Yrotation Zrotation
						JOINT LeftArm
						{
							OFFSET 5.26340 0.00000 0.00000
							CHANNELS 3 Xrotation Yrotation Zrotation
							JOINT LeftForeArm
							{
								OFFSET 10.14667 0.00000 0.00000
								CHANNELS 3 Xrotation Yrotation Zrotation
								JOINT LeftHand
								{
									OFFSET 8.53343 0.00000 0.00000
									CHANNELS 3 Xrotation Yrotation Zrotation
									JOINT LeftHandEnd
									{
										OFFSET 2.46135 0.00000 0.00000
										CHANNELS 3 Xrotation Yrotation Zrotation
										End Site
										{
											OFFSET 2.46135 0.00000 0.00000
										}
									}
									JOINT LeftHandThumb1
									{
										OFFSET 0.98454 -1.64090 -0.65636
										CHANNELS 3 Yrotation Xrotation Zrotation
										End Site
										{
											OFFSET 2.37748 -0.63704 0.00000
										}
									}
								}
							}
						}
					}
				}
			}
		}
	}
	JOINT RightUpLeg
	{
		OFFSET -3.14391 0.00000 -0.91845
		CHANNELS 3 Xrotation Yrotation Zrotation
		JOINT RightLeg
		{
			OFFSET 0.00000 0.00000 -14.43197
			CHANNELS 3 Xrotation Yrotation Zrotation
			JOINT RightFoot
			{
				OFFSET 0.00000 0.00000 -14.31693
				CHANNELS 3 Xrotation Yrotation Zrotation
				JOINT RightToeBase
				{
					OFFSET 0.00000 -4.51635 -1.64382
					CHANNELS 3 Xrotation Yrotation Zrotation
					End Site
					{
						OFFSET 0.00000 -2.54339 -0.00000
					}
				}
			}
		}
	}
	JOINT LeftUpLeg
	{
		OFFSET 3.14391 0.00000 -0.91845
		CHANNELS 3 Xrotation Yrotation Zrotation
		JOINT LeftLeg
		{
			OFFSET 0.00000 0.00000 -14.43197
			CHANNELS 3 Xrotation Yrotation Zrotation
			JOINT LeftFoot
			{
				OFFSET 0.00000 0.00000 -14.31693
				CHANNELS 3 Xrotation Yrotation Zrotation
				JOINT LeftToeBase
				{
					OFFSET 0.00000 -4.51635 -1.64382
					CHANNELS 3 Xrotation Yrotation Zrotation
					End Site
					{
						OFFSET 0.00000 -2.54339 -0.00000
					}
				}
			}
		}
	}
}
MOTION
Frames: 16
Frame Time: 0.008342
 6.0036 -17.5073 31.3205 1.3070 -5.9666 -94.3895 1.5120 -1.7858 0.8083 1.2689 -0.2948 0.1107 1.1979 2.1893 0.1548 0.3700 0.7151 -0.7893 -14.6967 -0.8413 -0.4438 -13.7813 -0.4172 -2.1564 12.7877 -4.2980 5.2387 8.1394 -29.9184 33.0787 -0.0001 0.0001 103.8263 77.1580 8.4336 -28.4181 0.0000 -0.0000 0.0000 -0.0000 -0.0000 -0.0000 2.8802 6.5686 -8.9239 18.7267 44.2834 -21.4068 -0.0001 -0.0001 -107.7286 76.2183 -26.0390 17.2895 -0.0000 -0.0000 0.0000 0.0000 0.0000 0.0000 2.6820 -0.8314 -12.3067 26.0582 0.0000 0.0000 -8.1966 -7.6849 -6.8330 -26.2418 0.0000 -0.0000 -24.7449 -2.5068 20.0574 20.8617 0.0000 0.0000 -4.4566 -0.7037 5.8017 -24.1330 0.0000 -0.0000
 6.0462 -17.4709 31.3183 1.4263 -5.8875 -94.0757 1.5490 -1.8524 0.8297 1.2755 -0.3195 0.1152 1.2322 2.1059 0.1787 0.3830 0.6888 -0.7390 -14.6317 -0.6911 -0.5675 -13.7753 -0.4265 -2.3312 12.7152 -4.7346 5.5884 8.2872 -29.9508 34.0664 -0.0001 0.0001 102.9999 76.9470 8.7625 -28.5831 0.0000 0.0000 0.0000 0.0000 -0.0000 0.0000 2.8243 6.5372 -9.0884 17.3031 43.6663 -19.6039 -0.0001 -0.0001 -107.9481 75.1931 -25.9458 16.8247 0.0000 -0.0000 -0.0000 -0.0000 0.0000 0.0000 2.7446 -0.9890 -12.7496 26.0411 0.0000 0.0000 -8.2396 -7.5720 -6.5984 -26.1597 0.0000 -0.0000 -24.8635 -2.5964 19.3660 22.2642 0.0000 0.0000 -5.1181 -1.1670 6.6038 -24.0554 0.0000 -0.0000
 6.0803 -17.4385 31.3157 1.5345 -5.8197 -93.8110 1.5638 -1.9093 0.8479 1.2677 -0.3442 0.1182 1.2747 2.0093 0.2299 0.3984 0.6558 -0.6742 -14.5741 -0.5283 -0.6710 -13.7368 -0.4323 -2.5163 12.6598 -5.1496 5.9630 8.4029 -30.0089 35.0343 -0.0000 0.0001 102.1638 76.6954 9.1203 -28.7207 -0.0000 0.0000 -0.0000 -0.0000 -0.0000 -0.0000 2.7696 6.5148 -9.2494 15.9069 43.0332 -17.8438 -0.0001 -0.0001 -108.1716 74.0189 -25.8311 16.3362 0.0000 -0.0000 -0.0000 0.0000 -0.0000 -0.0000 2.7750 -1.1178 -13.1664 26.0757 0.0000 0.0000 -8.2346 -7.4428 -6.3674 -26.1616 0.0000 -0.0000 -24.9429 -2.6721 18.6776 23.6558 0.0000 0.0000 -5.7690 -1.5505 7.3272 -24.0051 0.0000 -0.0000
 6.1054 -17.4102 31.3132 1.6298 -5.7625 -93.6049 1.5574 -1.9557 0.8619 1.2467 -0.3696 0.1213 1.3246 1.9019 0.3120 0.4165 0.6183 -0.5960 -14.5274 -0.3566 -0.7524 -13.6622 -0.4342 -2.7081 12.6141 -5.5402 6.3618 8.5034 -30.0908 35.9849 -0.0000 0.0001 101.3129 76.4140 9.5106 -28.8300 0.0000 0.0000 0.0000 0.0000 0.0000 -0.0000 2.7186 6.5003 -9.3937 14.5494 42.3864 -16.1476 -0.0001 -0.0001 -108.3983 72.7017 -25.6967 15.8355 0.0000 0.0000 -0.0000 -0.0000 -0.0000 0.0000 2.7813 -1.2178 -13.5380 26.1483 0.0000 0.0000 -8.1742 -7.3093 -6.1450 -26.2625 0.0000 -0.0000 -24.9638 -2.7333 18.0211 24.9871 0.0000 0.0000 -6.4087 -1.8344 7.9328 -23.9915 0.0000 -0.0000
 6.1210 -17.3860 31.3112 1.7105 -5.7142 -93.4628 1.5309 -1.9923 0.8725 1.2125 -0.3971 0.1234 1.3829 1.7909 0.4250 0.4377 0.5740 -0.5006 -14.4945 -0.1747 -0.8116 -13.5510 -0.4341 -2.9051 12.5661 -5.9050 6.7771 8.6093 -30.1918 36.9232 -0.0000 0.0001 100.4410 76.1163 9.9330 -28.9099 -0.0000 0.0000 -0.0000 -0.0000 0.0000 0.0000 2.6648 6.4967 -9.5200 13.2418 41.7295 -14.5186 -0.0001 -0.0001 -108.6304 71.2540 -25.5492 15.3303 0.0000 0.0000 0.0000 0.0000 -0.0000 -0.0000 2.7718 -1.2897 -13.8470 26.2474 0.0000 0.0000 -8.0567 -7.1839 -5.9337 -26.4639 0.0000 -0.0000 -24.9090 -2.7785 17.4181 26.2108 0.0000 0.0000 -7.0404 -2.0132 8.3966 -24.0129 0.0000 -0.0000
 6.1272 -17.3652 31.3100 1.7826 -5.6760 -93.3853 1.4852 -2.0245 0.8769 1.1670 -0.4237 0.1278 1.4480 1.6730 0.5746 0.4597 0.5287 -0.4000 -14.4728 0.0077 -0.8483 -13.4083 -0.4284 -3.1001 12.5075 -6.2494 7.2126 8.7343 -30.3019 37.8463 -0.0000 0.0001 99.5412 75.8173 10.3959 -28.9614 -0.0000 -0.0000 -0.0000 0.0000 0.0000 0.0000 2.6251 6.4993 -9.6091 11.9853 41.0608 -12.9867 -0.0001 -0.0001 -108.8623 69.7013 -25.3938 14.8389 0.0000 -0.0000 -0.0000 -0.0000 -0.0000 0.0000 2.7514 -1.3450 -14.0723 26.3610 0.0000 0.0000 -7.8852 -7.0766 -5.7417 -26.7551 0.0000 -0.0000 -24.7712 -2.8151 16.8813 27.2905 0.0000 0.0000 -7.6701 -2.0930 8.7091 -24.0577 0.0000 -0.0000
 6.1243 -17.3483 31.3098 1.8377 -5.6520 -93.3727 1.4169 -2.0463 0.8766 1.1094 -0.4548 0.1318 1.5211 1.5583 0.7558 0.4832 0.4805 -0.2883 -14.4639 0.1911 -0.8651 -13.2386 -0.4168 -3.2906 12.4263 -6.5783 7.6570 8.8933 -30.4096 38.7588 -0.0000 0.0001 98.6061 75.5292 10.8989 -28.9870 -0.0000 -0.0000 -0.0000 0.0000 -0.0000 -0.0000 2.5811 6.5145 -9.6670 10.7937 40.3837 -11.5403 -0.0001 -0.0001 -109.0977 68.0692 -25.2401 14.3626 -0.0000 0.0000 0.0000 0.0000 0.0000 0.0000 2.7132 -1.3751 -14.2056 26.4946 0.0000 0.0000 -7.6737 -6.9950 -5.5669 -27.1128 0.0000 -0.0000 -24.5459 -2.8325 16.4228 28.1848 0.0000 0.0000 -8.2968 -2.0905 8.8782 -24.1054 0.0000 -0.0000
 6.1118 -17.3348 31.3106 1.8797 -5.6350 -93.4167 1.3346 -2.0610 0.8700 1.0421 -0.4900 0.1358 1.5983 1.4479 0.9642 0.5078 0.4326 -0.1698 -14.4639 0.3692 -0.8681 -13.0514 -0.3979 -3.4682 12.3146 -6.9002 8.1057 9.0955 -30.5027 39.6602 -0.0000 0.0001 97.6299 75.2605 11.4449 -28.9890 -0.0000 0.0000 0.0000 0.0000 0.0000 0.0000 2.5368 6.5386 -9.6874 9.6701 39.7006 -10.1904 -0.0001 -0.0001 -109.3332 66.3916 -25.0976 13.9097 0.0000 -0.0000 -0.0000 0.0000 0.0000 0.0000 2.6685 -1.3871 -14.2425 26.6422 0.0000 0.0000 -7.4341 -6.9430 -5.4140 -27.5061 0.0000 -0.0000 -24.2238 -2.8316 16.0434 28.8671 0.0000 0.0000 -8.9231 -2.0314 8.9197 -24.1288 0.0000 -0.0000
 6.0895 -17.3252 31.3125 1.9048 -5.6166 -93.5090 1.2463 -2.0662 0.8561 0.9667 -0.5290 0.1421 1.6788 1.3452 1.1897 0.5336 0.3816 -0.0425 -14.4689 0.5446 -0.8556 -12.8575 -0.3702 -3.6362 12.1610 -7.2141 8.5520 9.3498 -30.5784 40.5460 -0.0000 0.0001 96.6098 75.0211 12.0343 -28.9684 0.0000 -0.0000 0.0000 0.0000 -0.0000 0.0000 2.4866 6.5779 -9.6776 8.6173 39.0122 -8.9279 -0.0001 -0.0001 -109.5712 64.7042 -24.9716 13.4856 0.0000 0.0000 0.0000 -0.0000 -0.0000 -0.0000 2.6265 -1.3766 -14.1886 26.8063 0.0000 0.0000 -7.1820 -6.9210 -5.2829 -27.9018 0.0000 -0.0000 -23.7953 -2.8014 15.7366 29.3126 0.0000 0.0000 -9.5458 -1.9441 8.8679 -24.0992 0.0000 -0.0000
 6.0587 -17.3193 31.3151 1.9150 -5.6108 -93.6381 1.1440 -2.0632 0.8347 0.8797 -0.5781 0.1493 1.7614 1.2566 1.4281 0.5602 0.3314 0.0876 -14.4768 0.7092 -0.8345 -12.6670 -0.3306 -3.7877 11.9712 -7.5351 8.9876 9.6478 -30.6143 41.4218 -0.0000 0.0001 95.5403 74.8128 12.6647 -28.9366 0.0000 -0.0000 -0.0000 -0.0000 0.0000 -0.0000 2.4287 6.6302 -9.6390 7.6358 38.3198 -7.7508 -0.0001 -0.0001 -109.8102 63.0394 -24.8699 13.0888 0.0000 -0.0000 -0.0000 -0.0000 0.0000 0.0000 2.5621 -1.3475 -14.0501 27.0032 0.0000 0.0000 -6.9349 -6.9242 -5.1835 -28.2696 0.0000 -0.0000 -23.2867 -2.7412 15.4929 29.5161 0.0000 0.0000 -10.1582 -1.8549 8.7557 -23.9903 0.0000 -0.0000
 6.0205 -17.3176 31.3180 1.9059 -5.6256 -93.7929 1.0228 -2.0525 0.8094 0.7792 -0.6190 0.1492 1.8466 1.1620 1.6842 0.5867 0.2841 0.2110 -14.4834 0.8693 -0.8016 -12.4914 -0.2795 -3.9275 11.7293 -7.8559 9.4158 9.9945 -30.6211 42.2662 -0.0000 0.0001 94.4297 74.6377 13.3312 -28.8899 -0.0000 0.0000 0.0000 0.0000 -0.0000 0.0000 2.3527 6.7041 -9.5877 6.7234 37.6271 -6.6332 -0.0001 -0.0001 -110.0560 61.4310 -24.7923 12.7172 0.0000 0.0000 0.0000 0.0000 0.0000 -0.0000 2.4556 -1.2926 -13.8451 27.2537 0.0000 0.0000 -6.7073 -6.9459 -5.1190 -28.5892 0.0000 -0.0000 -22.7179 -2.6402 15.2978 29.4756 0.0000 0.0000 -10.7494 -1.7885 8.6251 -23.7822 0.0000 -0.0000
 5.9753 -17.3191 31.3208 1.8929 -5.6567 -93.9537 0.8890 -2.0401 0.7746 0.6734 -0.6696 0.1567 1.9219 1.0791 1.9171 0.6161 0.2339 0.3435 -14.4873 1.0193 -0.7699 -12.3372 -0.2172 -4.0454 11.4532 -8.1815 9.8245 10.3714 -30.5852 43.0913 -0.0000 0.0001 93.2746 74.4936 14.0316 -28.8417 0.0000 -0.0000 -0.0000 -0.0000 -0.0000 -0.0000 2.2664 6.7920 -9.5230 5.8769 36.9394 -5.5849 -0.0001 -0.0001 -110.3040 59.9075 -24.7430 12.3714 0.0000 -0.0000 -0.0000 0.0000 -0.0000 0.0000 2.3118 -1.2325 -13.5926 27.5560 0.0000 0.0000 -6.4972 -6.9777 -5.1038 -28.8562 0.0000 -0.0000 -22.1032 -2.5125 15.1328 29.2119 0.0000 0.0000 -11.3148 -1.7638 8.5024 -23.4638 0.0000 -0.0000
 5.9217 -17.3267 31.3238 1.8439 -5.6823 -94.1189 0.7649 -2.0063 0.7364 0.5490 -0.7187 0.1544 1.9999 1.0029 2.1586 0.6452 0.1933 0.4562 -14.4819 1.1482 -0.7370 -12.2134 -0.1395 -4.1430 11.1526 -8.5224 10.2199 10.7612 -30.4963 43.8839 -0.0000 0.0001 92.0852 74.3700 14.7558 -28.8004 0.0000 -0.0000 0.0000 -0.0000 -0.0000 0.0000 2.1669 6.8870 -9.4531 5.0912 36.2672 -4.5875 -0.0001 -0.0001 -110.5591 58.4939 -24.7141 12.0450 0.0000 0.0000 -0.0000 -0.0000 0.0000 -0.0000 2.1412 -1.1169 -13.3372 27.9376 0.0000 0.0000 -6.3084 -7.0136 -5.1127 -29.0827 0.0000 -0.0000 -21.4184 -2.3155 14.9984 28.7134 0.0000 0.0000 -11.8314 -1.7928 8.4245 -23.0358 0.0000 -0.0000
 5.8624 -17.3398 31.3263 1.7672 -5.7292 -94.2751 0.6231 -1.9554 0.6946 0.4194 -0.7651 0.1552 2.0706 0.9297 2.3715 0.6744 0.1515 0.5686 -14.4692 1.2699 -0.7048 -12.1212 -0.0524 -4.2254 10.8321 -8.8645 10.5946 11.1522 -30.3629 44.6389 -0.0000 0.0001 90.8715 74.2622 15.4939 -28.7692 -0.0000 -0.0000 -0.0000 -0.0000 -0.0000 -0.0000 2.0640 6.9959 -9.3938 4.3519 35.6125 -3.6322 -0.0001 -0.0001 -110.8215 57.2032 -24.7068 11.7350 0.0000 -0.0000 -0.0000 0.0000 0.0000 0.0000 1.8989 -0.9552 -13.0999 28.4226 0.0000 0.0000 -6.1296 -7.0440 -5.1540 -29.2995 0.0000 -0.0000 -20.7200 -2.0614 14.8741 28.0219 0.0000 0.0000 -12.2858 -1.8751 8.4125 -22.5118 0.0000 -0.0000
 5.7970 -17.3596 31.3285 1.6517 -5.7846 -94.4170 0.4769 -1.8807 0.6503 0.2811 -0.8052 0.1523 2.1355 0.8592 2.5615 0.7050 0.1148 0.6699 -14.4520 1.3739 -0.6733 -12.0576 0.0446 -4.2900 10.5060 -9.2065 10.9521 11.5279 -30.1877 45.3558 -0.0000 0.0001 89.6428 74.1600 16.2380 -28.7547 0.0000 0.0000 -0.0000 0.0000 -0.0000 -0.0000 1.9505 7.1085 -9.3424 3.6648 34.9891 -2.7162 -0.0001 -0.0001 -111.0946 56.0578 -24.7070 11.4471 0.0000 0.0000 -0.0000 0.0000 0.0000 0.0000 1.5896 -0.7257 -12.9179 29.0263 0.0000 0.0000 -5.9392 -7.0629 -5.2081 -29.5503 0.0000 -0.0000 -20.0045 -1.7390 14.7594 27.1590 0.0000 0.0000 -12.6610 -2.0058 8.4751 -21.9147 0.0000 -0.0000
 5.7255 -17.3862 31.3305 1.4937 -5.8405 -94.5396 0.3300 -1.7793 0.6051 0.1421 -0.8350 0.1502 2.1924 0.7907 2.7170 0.7353 0.0808 0.7624 -14.4292 1.4638 -0.6449 -12.0199 0.1466 -4.3380 10.1901 -9.5359 11.2943 11.8703 -29.9801 46.0280 -0.0000 0.0001 88.4150 74.0506 16.9759 -28.7645 0.0000 0.0000 0.0000 0.0000 -0.0000 0.0000 1.8423 7.2191 -9.3094 3.0131 34.4073 -1.8333 -0.0001 -0.0001 -111.3796 55.0521 -24.7143 11.1723 -0.0000 -0.0000 0.0000 -0.0000 0.0000 0.0000 1.2139 -0.4166 -12.8177 29.7611 0.0000 0.0000 -5.7071 -7.0661 -5.2593 -29.8868 0.0000 -0.0000 -19.2773 -1.3473 14.6498 26.1589 0.0000 0.0000 -12.9444 -2.1706 8.6134 -21.2744 0.0000 -0.0000
